<?xml version="1.0" encoding="utf-8"?>
<!-- Generator: Adobe Illustrator 19.0.0, SVG Export Plug-In . SVG Version: 6.00 Build 0)  -->
<svg version="1.1" id="Layer_1" xmlns="http://www.w3.org/2000/svg" xmlns:xlink="http://www.w3.org/1999/xlink" x="0px" y="0px"
	 viewBox="-314 315.8 570.2 570.2" style="enable-background:new -314 315.8 570.2 570.2;" xml:space="preserve">
<style type="text/css">
	.st0{fill:#EF963F;}
	.st1{fill:#E6D011;}
</style>
<g>
	<path class="st0" d="M113.3,549.3l-20.4-113h54.4c12.5,0,22.5,10,22.5,22.5s-10,22.5-22.5,22.5c-6.8,0-11.4,4.6-11.4,11.4
		s4.6,11.4,11.4,11.4c24.7,0,45.1-20.4,45.1-45.1c0-24.7-20.4-45.1-45.1-45.1h-113c-6.8,0-11.4,4.6-11.4,11.4
		c0,6.8,4.6,11.4,11.4,11.4h36.1l12.5,67.6h-229.2c-4.6,0-8.9,3.2-11.4,7.9l-11.4,37.2c-3.2,0-6.8,0-11.4,0
		c-62.2,0-113,50.8-113,113c0,62.2,50.8,113,113,113c62.2,0,113-50.8,113-113c0-50.8-32.9-92.6-79-107.3l7.9-28.3H85.7l4.6,24.7
		c-51.9,10-90.5,56.5-90.5,110.5c0,62.2,50.8,113,113,113s113-50.8,113-113C226.3,600.1,175.5,549.3,113.3,549.3z M-89.9,662
		c0,49.7-40.8,90.5-90.5,90.5c-49.7,0-90.5-40.8-90.5-90.5c0-49.7,40.8-90.5,90.5-90.5c2.1,0,3.2,0,5.7,0l-28.3,98.3
		c-2.1,5.7,2.1,12.5,7.9,13.6c1.1,0,2.1,0,3.2,0c4.6,0,8.9-3.2,11.4-7.9l28.3-100.5C-116,588.6-89.9,622.6-89.9,662z M113.3,752.4
		c-49.7,0-90.5-40.8-90.5-90.5c0-44,30.4-80.1,72.2-88l18.2,101.6c1.1,5.7,5.7,8.9,11.4,8.9c1.1,0,1.1,0,2.1,0
		c5.7-1.1,10-6.8,8.9-13.6l-18.2-99.4c47.6,2.1,85.8,41.8,85.8,90.5C203.7,711.7,163,752.4,113.3,752.4z"/>
	<path class="st1" d="M-191.8,458.8h90.5c6.8,0,11.4-4.6,11.4-11.4c0-6.8-4.6-11.4-11.4-11.4h-90.5c-6.8,0-11.4,4.6-11.4,11.4
		C-202.9,454.2-198.6,458.8-191.8,458.8z"/>
</g>
</svg>
