<?xml version="1.0" encoding="utf-8"?>
<!-- Generator: Adobe Illustrator 16.0.0, SVG Export Plug-In . SVG Version: 6.00 Build 0)  -->
<!DOCTYPE svg PUBLIC "-//W3C//DTD SVG 1.1//EN" "http://www.w3.org/Graphics/SVG/1.1/DTD/svg11.dtd">
<svg version="1.1" id="Layer_1" xmlns="http://www.w3.org/2000/svg" xmlns:xlink="http://www.w3.org/1999/xlink" x="0px" y="0px"
	 width="64px" height="64px" viewBox="0 0 64 64" enable-background="new 0 0 64 64" xml:space="preserve">
<g>
	<path fill="#EF963F" d="M37.236,31.967c0.372-0.104,0.652-0.276,0.842-0.519c0.188-0.242,0.282-0.545,0.282-0.91
		c0-0.346-0.088-0.651-0.264-0.914c-0.176-0.263-0.429-0.443-0.755-0.541s-0.888-0.146-1.683-0.146h-2.211v3.149h2.392
		C36.489,32.088,36.955,32.048,37.236,31.967z"/>
	<path fill="#EF963F" d="M16.261,29.151c-0.392-0.142-1.023-0.213-1.894-0.213h-2.324v7.964h2.362c0.729,0,1.302-0.064,1.716-0.192
		c0.416-0.128,0.746-0.308,0.992-0.54c0.347-0.327,0.618-0.766,0.812-1.319c0.193-0.552,0.29-1.222,0.29-2.009
		c0-1.091-0.19-1.928-0.57-2.514C17.266,29.743,16.805,29.351,16.261,29.151z"/>
	<path fill="#EF963F" d="M37.625,33.493c-0.375-0.117-0.914-0.174-1.618-0.174h-2.559v3.583h2.754c0.473,0,0.805-0.017,0.996-0.05
		c0.337-0.057,0.619-0.152,0.845-0.284c0.228-0.133,0.413-0.327,0.56-0.58c0.146-0.253,0.218-0.547,0.218-0.878
		c0-0.389-0.105-0.727-0.316-1.014C38.292,33.811,38,33.608,37.625,33.493z"/>
	<path fill="#EF963F" d="M55.633,12.5H8.368c-2.506,0-4.545,1.922-4.545,4.283v30.84c0,2.361,2.039,4.282,4.545,4.282h47.265
		c2.506,0,4.544-1.921,4.544-4.282v-30.84C60.177,14.422,58.139,12.5,55.633,12.5z M19.43,34.969
		c-0.196,0.61-0.448,1.117-0.754,1.518s-0.643,0.716-1.007,0.946c-0.365,0.229-0.805,0.404-1.321,0.522
		c-0.515,0.118-1.107,0.178-1.776,0.178H10.58V27.708h3.81c0.86,0,1.517,0.05,1.969,0.149c0.634,0.138,1.174,0.386,1.622,0.746
		c0.583,0.465,1.02,1.059,1.309,1.782c0.289,0.723,0.434,1.549,0.434,2.478C19.725,33.655,19.626,34.356,19.43,34.969z
		 M30.023,38.133h-8.254V27.708h7.998v1.23h-6.534v3.192h6.119v1.224h-6.119v3.548h6.791V38.133z M40.009,36.472
		c-0.219,0.421-0.488,0.743-0.811,0.972c-0.322,0.228-0.726,0.398-1.211,0.516c-0.485,0.116-1.08,0.174-1.785,0.174h-4.217V27.708
		h4.15c0.845,0,1.523,0.105,2.033,0.316c0.511,0.211,0.91,0.536,1.199,0.975c0.29,0.438,0.435,0.896,0.435,1.375
		c0,0.445-0.129,0.865-0.385,1.258c-0.257,0.394-0.645,0.711-1.163,0.953c0.67,0.185,1.185,0.5,1.544,0.945
		c0.359,0.446,0.539,0.973,0.539,1.579C40.337,35.598,40.228,36.053,40.009,36.472z M44.063,38.133h-1.463V27.708h1.463V38.133z
		 M54.582,28.938h-3.659v9.194H49.46v-9.194h-3.645v-1.23h8.767V28.938z"/>
</g>
</svg>
