<?xml version="1.0" encoding="utf-8"?>
<!-- Generator: Adobe Illustrator 19.0.0, SVG Export Plug-In . SVG Version: 6.00 Build 0)  -->
<svg version="1.1" id="Layer_1" xmlns="http://www.w3.org/2000/svg" xmlns:xlink="http://www.w3.org/1999/xlink" x="0px" y="0px"
	 viewBox="285 315.8 439 439" style="enable-background:new 285 315.8 439 439;" xml:space="preserve">
<style type="text/css">
	.st0{fill:#EF963F;}
	.st1{opacity:0.8;}
	.st2{clip-path:url(#SVGID_2_);}
	.st3{fill:#E6D011;}
</style>
<path class="st0" d="M120,502.1H-181c-16,0-29,13-29,29v208.5c0,16,13,29,29,29H120c16,0,29-13,29-29V531.1
	C149,515.1,136,502.1,120,502.1"/>
<g class="st1">
	<g>
		<defs>
			<rect id="SVGID_1_" x="-145.6" y="583.4" width="236.1" height="104.2"/>
		</defs>
		<clipPath id="SVGID_2_">
			<use xlink:href="#SVGID_1_"  style="overflow:visible;"/>
		</clipPath>
		<g class="st2">
			<text transform="matrix(1 0 0 1.035 -145.5961 666.8011)"><tspan x="0" y="0" style="font-family:'MrEavesXLModOT-RegItalic'; font-size:100.6987px; letter-spacing:2;">DEBI</tspan><tspan x="181.4" y="0" style="font-family:'MrEavesXLModOT-RegItalic'; font-size:100.6987px;">T</tspan></text>
		</g>
	</g>
</g>
<path class="st3" d="M1050.5,418.3H946.2v-32.9c0-6.1-4.9-11-11-11h-76.9c-6.1,0-11,4.9-11,11v32.9H743c-3,0-5.5,2.5-5.5,5.5v16.5
	c0,3,2.5,5.5,5.5,5.5h307.5c3,0,5.5-2.5,5.5-5.5v-16.5C1056,420.7,1053.5,418.3,1050.5,418.3 M869.3,396.3h54.9v22h-54.9V396.3z"/>
<path class="st0" d="M1023,456.7H770.5c0,0.2-0.1,0.3-0.1,0.5l22,252.6c0.2,2.8,2.6,5,5.5,5h197.7c2.8,0,5.2-2.2,5.5-5l22-252.6
	C1023,457,1023,456.9,1023,456.7 M833.6,582.6c0-34.8,28.3-63.1,63.1-63.1c13.4,0,26,4.1,36.3,11.5l13.8-12.4
	c1.7-1.5,4.1-1.8,6.1-0.9c2,1,3.2,3.1,3.1,5.3l-2.3,34.6c-0.2,3.1-3.1,5.3-5.7,5.1l-34.6-1.5c-2.2-0.1-4.2-1.5-4.9-3.6
	c-0.7-2.1-0.2-4.4,1.5-5.9l14.6-13.1c-8.1-5.2-17.7-8.1-27.9-8.1c-28.3,0-52.2,23.9-52.2,52.2c0,3-2.5,5.5-5.5,5.5
	C836.1,588.1,833.6,585.6,833.6,582.6 M896.8,647.3c-13.3,0-25.8-4.1-36.1-11.3L848.3,648c-1.6,1.5-3.9,2-6,1.1
	c-2-0.9-3.3-2.9-3.3-5.2l0.8-34.6c0.1-2.7,2.5-5.4,5.5-5.4h34.6c2.2,0,4.2,1.4,5.1,3.4c0.8,2.1,0.3,4.4-1.2,6l-15,14.7
	c8.2,5.2,17.8,8.2,28.1,8.2c28.3,0,52.2-23.9,52.2-52.2c0-3,2.5-5.5,5.5-5.5c3,0,5.5,2.5,5.5,5.5
	C959.9,618.9,931.6,647.3,896.8,647.3"/>
<path class="st0" d="M550.9,384c-2.8-3.9-7.9-6.2-12.4-6.2h-37.8v-5.6c0-3.4-2.3-5.6-5.6-5.6c-3.4,0-5.6,2.3-5.6,5.6V406
	c0,3.4,2.3,5.6,5.6,5.6c3.4,0,5.6-2.3,5.6-5.6v-16.9h37.8c1.7,0,3.4,0.6,4.5,2.3c1.1,1.1,1.7,2.8,1.1,4.5L515.4,578
	c-1.1,8.5-8.5,14.1-16.9,14.1H390.2c-8.5,0-15.2-6.2-16.9-14.1l-28.2-182.1c0-1.7,0-3.4,1.1-4.5c1.1-1.7,2.3-2.3,3.9-2.3H388V406
	c0,3.4,2.3,5.6,5.6,5.6c3.4,0,5.6-2.3,5.6-5.6v-33.8c0-3.4-2.3-5.6-5.6-5.6c-3.4,0-5.6,2.3-5.6,5.6v5.6h-37.8
	c-4.5,0-9.6,2.3-12.4,6.2c-2.8,3.9-5.1,8.5-3.9,13.5l28.8,182.1c2.3,13.5,14.1,23.7,27.6,23.7h108.2c14.1,0,25.9-10.1,27.6-23.7
	l28.8-182.1C555.9,392.5,554.3,387.4,550.9,384"/>
<path class="st3" d="M675.5,575.2c0-24.8-20.3-45.1-45.1-45.1c-24.8,0-45.1,20.3-45.1,45.1c0,23.1,17.5,41.7,39.5,44.5v0.6
	c0,46.8-37.8,84.6-84.6,84.6h-11.3c-46.8,0-84.6-37.8-84.6-84.6v-5.6h-11.3v5.6c0,53,42.8,95.8,95.8,95.8h11.3
	c53,0,95.8-42.8,95.8-95.8v-0.6C658,616.9,675.5,598.3,675.5,575.2"/>
</svg>
