<?xml version="1.0" encoding="utf-8"?>
<!-- Generator: Adobe Illustrator 19.0.0, SVG Export Plug-In . SVG Version: 6.00 Build 0)  -->
<svg version="1.1" id="Layer_1" xmlns="http://www.w3.org/2000/svg" xmlns:xlink="http://www.w3.org/1999/xlink" x="0px" y="0px"
	 viewBox="-314 315.8 570.2 570.2" style="enable-background:new -314 315.8 570.2 570.2;" xml:space="preserve">
<style type="text/css">
	.st0{fill:none;}
	.st1{fill:#EF963F;}
	.st2{fill:#E6D011;}
</style>
<g>
	<path class="st0" d="M74.4,555.5l-12.8,12.8L3.5,510.2l12.8-12.8c-28.6-12.8-61.6-12.8-90.7,0l12.8,12.8l-58.1,58.1l-12.8-12.8
		c-12.8,28.6-12.8,61.6,0,90.7l12.8-12.8l58.1,58.1l-12.8,12.8c28.6,12.8,61.6,12.8,90.7,0L3.5,691.6l58.1-58.1l12.8,12.8
		C87.1,617.2,87.1,584.6,74.4,555.5z"/>
	<path class="st1" d="M-132.2,555.5l-89.8-89.8c-56.8,81-56.8,189.3,0,270.4l89.8-89.8C-144.9,617.2-144.9,584.6-132.2,555.5z"/>
	<path class="st1" d="M74.4,646.3l89.8,89.8c56.8-81,56.8-189.3,0-270.4l-89.8,89.8C87.1,584.6,87.1,617.2,74.4,646.3z"/>
	<path class="st1" d="M16.2,497.4l89.8-89.8c-81-56.8-189.3-56.8-270.4,0l89.8,89.8C-45.4,485.1-12.4,485.1,16.2,497.4z"/>
	<path class="st1" d="M-74,704.4l-89.8,89.8c81,56.8,189.3,56.8,270.4,0l-89.8-89.8C-12.4,716.7-45.4,716.7-74,704.4z"/>
	<path class="st2" d="M51,521.2c10.1,10.1,18.1,22,23.3,34.3l89.8-89.8c-7.9-11-16.3-22-26.4-31.7c-10.1-10.1-20.7-18.5-31.7-26.4
		l-89.8,89.8C29,503.1,40.5,510.6,51,521.2z"/>
	<path class="st2" d="M164.2,736.1l-89.8-89.8c-5.3,12.3-13.2,24.2-23.3,34.3s-22,18.1-34.3,23.3l89.8,89.8
		c11-7.9,22-16.3,31.7-26.4C147.9,757.7,156.7,747.1,164.2,736.1z"/>
	<path class="st2" d="M-108.8,680.6c-10.1-10.1-18.1-22-23.3-34.3l-89.8,89.8c7.9,11,16.3,22,26.4,31.7
		c10.1,10.1,20.7,18.5,31.7,26.4l89.8-89.8C-86.8,698.7-98.2,691.2-108.8,680.6z"/>
	<path class="st2" d="M-108.8,521.2c10.1-10.1,22-18.1,34.3-23.3l-89.8-89.8c-11,7.9-22,16.3-31.7,26.4
		c-10.1,10.1-18.5,20.7-26.4,31.7l89.8,89.8C-126.9,543.2-118.9,531.3-108.8,521.2z"/>
</g>
</svg>
