<?xml version="1.0" encoding="utf-8"?>
<!-- Generator: Adobe Illustrator 19.0.0, SVG Export Plug-In . SVG Version: 6.00 Build 0)  -->
<svg version="1.1" id="Layer_1" xmlns="http://www.w3.org/2000/svg" xmlns:xlink="http://www.w3.org/1999/xlink" x="0px" y="0px"
	 viewBox="0 0 347.1 243.4" style="enable-background:new 0 0 347.1 243.4;" xml:space="preserve">
<style type="text/css">
	.Drop_x0020_Shadow{fill:none;}
	.Round_x0020_Corners_x0020_2_x0020_pt{fill:#FFFFFF;stroke:#000000;stroke-miterlimit:10;}
	.Live_x0020_Reflect_x0020_X{fill:none;}
	.Bevel_x0020_Soft{fill:url(#SVGID_1_);}
	.Dusk{fill:#FFFFFF;}
	.Foliage_GS{fill:#FFDD00;}
	.Pompadour_GS{fill-rule:evenodd;clip-rule:evenodd;fill:#44ADE2;}
	.st0{fill:#6AC7B9;}
	.st1{fill:#FFFFFF;}
</style>
<linearGradient id="SVGID_1_" gradientUnits="userSpaceOnUse" x1="0" y1="0" x2="0.7071" y2="0.7071">
	<stop  offset="0" style="stop-color:#DEDFE3"/>
	<stop  offset="0.1738" style="stop-color:#D8D9DD"/>
	<stop  offset="0.352" style="stop-color:#C9CACD"/>
	<stop  offset="0.5323" style="stop-color:#B4B5B8"/>
	<stop  offset="0.7139" style="stop-color:#989A9C"/>
	<stop  offset="0.8949" style="stop-color:#797C7E"/>
	<stop  offset="1" style="stop-color:#656B6C"/>
</linearGradient>
<rect id="XMLID_5_" x="0" y="0" class="st0" width="347.1" height="243.4"/>
<g id="XMLID_2_" transform="translate(0, 0)">
	<path id="XMLID_4_" class="st1" d="M188.2,147.5h-35.8v-35.8c0-0.9-0.6-1.4-1.4-1.4c-21.3,0-38.6,17.3-38.6,38.6
		c0,21.3,17.3,38.6,38.6,38.6s38.6-17.3,38.6-38.6C189.6,148.1,189.1,147.5,188.2,147.5z"/>
	<path id="XMLID_3_" class="st1" d="M159.6,101.8c-0.9,0-1.4,0.6-1.4,1.4v37.2c0,0.9,0.6,1.4,1.4,1.4h37.2c0.9,0,1.4-0.6,1.4-1.4
		C198.2,119.1,180.9,101.8,159.6,101.8z"/>
</g>
</svg>
