<?xml version="1.0" encoding="utf-8"?>
<!-- Generator: Adobe Illustrator 19.0.0, SVG Export Plug-In . SVG Version: 6.00 Build 0)  -->
<svg version="1.1" id="Layer_1" xmlns="http://www.w3.org/2000/svg" xmlns:xlink="http://www.w3.org/1999/xlink" x="0px" y="0px"
	 viewBox="-587 589 24 24" style="enable-background:new -587 589 24 24;" xml:space="preserve">
<style type="text/css">
	.st0{fill:#EFEFEF;}
</style>
<g>
	<path class="st0" d="M-575,591.2c3.2,0,3.6,0,4.8,0.1c1.4,0.1,2.6,0.3,3.6,1.3c1,1,1.2,2.2,1.3,3.6c0.1,1.3,0.1,1.6,0.1,4.8
		s0,3.6-0.1,4.8c-0.1,1.4-0.3,2.6-1.3,3.6c-1,1-2.2,1.2-3.6,1.3c-1.3,0.1-1.6,0.1-4.8,0.1s-3.6,0-4.8-0.1c-1.4-0.1-2.6-0.3-3.6-1.3
		c-1-1-1.2-2.2-1.3-3.6c-0.1-1.3-0.1-1.6-0.1-4.8s0-3.6,0.1-4.8c0.1-1.4,0.3-2.6,1.3-3.6c1-1,2.2-1.2,3.6-1.3
		C-578.6,591.2-578.2,591.2-575,591.2 M-575,589c-3.3,0-3.7,0-4.9,0.1c-2,0.1-3.7,0.6-5,1.9s-1.9,3.1-1.9,5
		c-0.1,1.3-0.1,1.7-0.1,4.9s0,3.7,0.1,4.9c0.1,2,0.6,3.7,1.9,5s3.1,1.9,5,1.9c1.3,0.1,1.7,0.1,4.9,0.1s3.7,0,4.9-0.1
		c2-0.1,3.7-0.6,5-1.9s1.9-3.1,1.9-5c0.1-1.3,0.1-1.7,0.1-4.9s0-3.7-0.1-4.9c-0.1-2-0.6-3.7-1.9-5s-3.1-1.9-5-1.9
		C-571.3,589-571.7,589-575,589L-575,589z"/>
	<path class="st0" d="M-575,594.8c-3.4,0-6.2,2.8-6.2,6.2s2.8,6.2,6.2,6.2s6.2-2.8,6.2-6.2S-571.6,594.8-575,594.8z M-575,605
		c-2.2,0-4-1.8-4-4s1.8-4,4-4s4,1.8,4,4S-572.8,605-575,605z"/>
	<circle class="st0" cx="-568.6" cy="594.6" r="1.4"/>
</g>
</svg>
