<?xml version="1.0" encoding="utf-8"?>
<!-- Generator: Adobe Illustrator 18.0.0, SVG Export Plug-In . SVG Version: 6.00 Build 0)  -->
<!DOCTYPE svg PUBLIC "-//W3C//DTD SVG 1.1//EN" "http://www.w3.org/Graphics/SVG/1.1/DTD/svg11.dtd">
<svg version="1.1" id="Layer_1" xmlns="http://www.w3.org/2000/svg" xmlns:xlink="http://www.w3.org/1999/xlink" x="0px" y="0px"
	 viewBox="0 0 570.2 570.2" enable-background="new 0 0 570.2 570.2" xml:space="preserve">
<path fill="#F39A3F" d="M313,360.7H172.6c-5.2,0-9.4-4.2-9.4-9.4V126.8c0-5.2,4.2-9.4,9.4-9.4h243.2c5.2,0,9.4,4.2,9.4,9.4V211h28.1
	c3.2,0,6.3,0.3,9.4,0.9V108.1c0-15.5-12.6-28.1-28.1-28.1H97.8c-15.5,0-28.1,12.6-28.1,28.1V370c0,15.5,12.6,28.1,28.1,28.1H313
	V360.7z M116.5,267.1c-15.5,0-28.1-12.6-28.1-28.1c0-15.5,12.6-28.1,28.1-28.1c15.5,0,28.1,12.6,28.1,28.1
	C144.6,254.5,132,267.1,116.5,267.1"/>
<path fill="#EAD411" d="M472,229.7H359.7c-15.5,0-28.1,12.6-28.1,28.1v224.5c0,15.5,12.6,28.1,28.1,28.1H472
	c15.5,0,28.1-12.6,28.1-28.1V257.8C500,242.3,487.5,229.7,472,229.7 M415.9,491.6c-10.3,0-18.7-8.4-18.7-18.7s8.4-18.7,18.7-18.7
	s18.7,8.4,18.7,18.7S426.2,491.6,415.9,491.6 M472,426.1c0,5.2-4.2,9.4-9.4,9.4h-93.5c-5.2,0-9.4-4.2-9.4-9.4v-159
	c0-5.2,4.2-9.4,9.4-9.4h93.5c5.2,0,9.4,4.2,9.4,9.4V426.1z"/>
</svg>
