<?xml version="1.0" encoding="utf-8"?>
<!-- Generator: Adobe Illustrator 19.0.0, SVG Export Plug-In . SVG Version: 6.00 Build 0)  -->
<svg version="1.1"
	 id="svg3626" xmlns:svg="http://www.w3.org/2000/svg" xmlns:cc="http://creativecommons.org/ns#" xmlns:rdf="http://www.w3.org/1999/02/22-rdf-syntax-ns#" xmlns:dc="http://purl.org/dc/elements/1.1/"
	 xmlns="http://www.w3.org/2000/svg" xmlns:xlink="http://www.w3.org/1999/xlink" x="0px" y="0px" viewBox="-324 575.9 50 50"
	 style="enable-background:new -324 575.9 50 50;" xml:space="preserve">
<style type="text/css">
	.st0{fill: #5ed5c3;}
</style>
<g id="layer1" transform="translate(-539.17946,-568.85777)">
	<path id="path3611" class="st0" d="M231.5,1188.7c17.6,0,27.2-14.6,27.2-27.2c0-0.4,0-0.8,0-1.2c1.9-1.4,3.5-3,4.8-5
		c-1.7,0.8-3.6,1.3-5.5,1.5c2-1.2,3.5-3.1,4.2-5.3c-1.8,1.1-3.9,1.9-6.1,2.3c-1.7-1.9-4.2-3-7-3c-5.3,0-9.6,4.3-9.6,9.6
		c0,0.8,0.1,1.5,0.2,2.2c-8-0.4-15-4.2-19.7-10c-0.8,1.4-1.3,3.1-1.3,4.8c0,3.3,1.7,6.3,4.3,8c-1.6,0-3-0.5-4.3-1.2c0,0,0,0.1,0,0.1
		c0,4.6,3.3,8.5,7.7,9.4c-0.8,0.2-1.7,0.3-2.5,0.3c-0.6,0-1.2-0.1-1.8-0.2c1.2,3.8,4.8,6.6,8.9,6.7c-3.3,2.6-7.4,4.1-11.9,4.1
		c-0.8,0-1.5,0-2.3-0.1C221.1,1187.1,226.1,1188.7,231.5,1188.7"/>
</g>
</svg>
