<?xml version="1.0" encoding="utf-8"?>
<!-- Generator: Adobe Illustrator 19.0.0, SVG Export Plug-In . SVG Version: 6.00 Build 0)  -->
<svg version="1.1" id="Layer_1" xmlns="http://www.w3.org/2000/svg" xmlns:xlink="http://www.w3.org/1999/xlink" x="0px" y="0px"
	 viewBox="-225 227 48 48" style="enable-background:new -225 227 48 48;" xml:space="preserve">
<style type="text/css">
	.st0{fill:#5ED5C3;}
</style>
<g>
	<path class="st0" d="M-179,227h-44c-1.1,0-2,0.9-2,2v44c0,1.1,0.9,2,2,2h44c1.1,0,2-0.9,2-2v-44C-177,227.9-177.9,227-179,227z
		 M-210.8,267.9h-7.1V245h7.1V267.9z M-214.3,241.9c-2.3,0-4.1-1.8-4.1-4.1s1.8-4.1,4.1-4.1s4.1,1.8,4.1,4.1
		C-210.2,240-212,241.9-214.3,241.9z M-184.1,267.9h-7.1v-11.1c0-2.7,0-6.1-3.7-6.1c-3.7,0-4.3,2.9-4.3,5.9v11.3h-7.1V245h6.8v3.1
		h0.1c0.9-1.8,3.3-3.7,6.7-3.7c7.2,0,8.5,4.7,8.5,10.9L-184.1,267.9L-184.1,267.9z"/>
</g>
</svg>
