<?xml version="1.0" encoding="utf-8"?>
<!-- Generator: Adobe Illustrator 19.0.0, SVG Export Plug-In . SVG Version: 6.00 Build 0)  -->
<svg version="1.1" id="Layer_1" xmlns="http://www.w3.org/2000/svg" xmlns:xlink="http://www.w3.org/1999/xlink" x="0px" y="0px"
	 viewBox="-314 315.8 570.2 570.2" style="enable-background:new -314 315.8 570.2 570.2;" xml:space="preserve">
<style type="text/css">
	.st0{fill:#F39A3F;}
	.st1{fill:#EAD411;}
	.st2{fill:#EF963F;}
	.st3{fill:#E6D011;}
</style>
<path class="st0" d="M548,676.5H407.6c-5.2,0-9.4-4.2-9.4-9.4V442.6c0-5.2,4.2-9.4,9.4-9.4h243.2c5.2,0,9.4,4.2,9.4,9.4v84.2h28.1
	c3.2,0,6.3,0.3,9.4,0.9V423.9c0-15.5-12.6-28.1-28.1-28.1H332.8c-15.5,0-28.1,12.6-28.1,28.1v261.9c0,15.5,12.6,28.1,28.1,28.1H548
	V676.5z M351.5,582.9c-15.5,0-28.1-12.6-28.1-28.1s12.6-28.1,28.1-28.1s28.1,12.6,28.1,28.1S367,582.9,351.5,582.9"/>
<path class="st1" d="M707,545.5H594.7c-15.5,0-28.1,12.6-28.1,28.1v224.5c0,15.5,12.6,28.1,28.1,28.1H707
	c15.5,0,28.1-12.6,28.1-28.1V573.6C735,558.1,722.5,545.5,707,545.5 M650.9,807.4c-10.3,0-18.7-8.4-18.7-18.7
	c0-10.3,8.4-18.7,18.7-18.7c10.3,0,18.7,8.4,18.7,18.7C669.6,799,661.2,807.4,650.9,807.4 M707,741.9c0,5.2-4.2,9.4-9.4,9.4h-93.5
	c-5.2,0-9.4-4.2-9.4-9.4v-159c0-5.2,4.2-9.4,9.4-9.4h93.5c5.2,0,9.4,4.2,9.4,9.4V741.9z"/>
<path class="st2" d="M-214.1,531.4c0,32.8-26.1,58.9-58.9,58.9h-16.8v67.3h521.9v-50.5c0-32.8-26.1-58.9-58.9-58.9H131h-22.7H-20.5
	c-1.7,0-3.4-0.8-5.1-1.7l-96.8-75.8c-10.9,5.9-24.4,10.1-41.2,10.1c-21.9,0-38.7-6.7-50.5-16V531.4z"/>
<path class="st3" d="M-18,531.4H86.4L30,486.8l-18.5,24.4c-1.7,2.5-4.2,3.4-6.7,3.4c-1.7,0-3.4-0.8-5.1-1.7
	c-3.4-2.5-4.2-8.4-1.7-11.8l18.5-24.4l-20.2-16L-22.2,486c-1.7,2.5-4.2,3.4-6.7,3.4c-1.7,0-3.4-0.8-5.1-1.7
	c-3.4-2.5-4.2-8.4-1.7-11.8l18.5-25.3l-23.6-18.5c-1.7-0.8-3.4-1.7-5.1-1.7h-33.7c-3.4,0-5.9,1.7-7.6,5.1c0,0-6.7,13.5-21,26.1
	L-18,531.4z"/>
<path class="st3" d="M-247.8,716.6H190c23.6,0,42.1-18.5,42.1-42.1h-521.9C-289.9,698.1-271.3,716.6-247.8,716.6"/>
<path class="st3" d="M-273,573.5c23.6,0,42.1-18.5,42.1-42.1v-82.5c-5.9-7.6-9.3-13.5-9.3-14.3c-1.7-2.5-4.2-4.2-7.6-4.2h-33.7
	c-5.1,0-8.4,3.4-8.4,8.4v134.7H-273z"/>
</svg>
