<?xml version="1.0" encoding="utf-8"?>
<!-- Generator: Adobe Illustrator 19.0.0, SVG Export Plug-In . SVG Version: 6.00 Build 0)  -->
<svg version="1.1" id="Layer_1" xmlns="http://www.w3.org/2000/svg" xmlns:xlink="http://www.w3.org/1999/xlink" x="0px" y="0px"
	 viewBox="-314 315.8 570.2 570.2" style="enable-background:new -314 315.8 570.2 570.2;" xml:space="preserve">
<style type="text/css">
	.st0{fill:#F39A3F;}
	.st1{fill:#EAD411;}
	.st2{fill:#EF963F;}
	.st3{fill:#E6D011;}
	.st4{opacity:0.8;}
	.st5{clip-path:url(#SVGID_2_);}
</style>
<path class="st0" d="M548,676.5H407.6c-5.2,0-9.4-4.2-9.4-9.4V442.6c0-5.2,4.2-9.4,9.4-9.4h243.2c5.2,0,9.4,4.2,9.4,9.4v84.2h28.1
	c3.2,0,6.3,0.3,9.4,0.9V423.9c0-15.5-12.6-28.1-28.1-28.1H332.8c-15.5,0-28.1,12.6-28.1,28.1v261.9c0,15.5,12.6,28.1,28.1,28.1H548
	V676.5z M351.5,582.9c-15.5,0-28.1-12.6-28.1-28.1s12.6-28.1,28.1-28.1s28.1,12.6,28.1,28.1S367,582.9,351.5,582.9"/>
<path class="st1" d="M707,545.5H594.7c-15.5,0-28.1,12.6-28.1,28.1v224.5c0,15.5,12.6,28.1,28.1,28.1H707
	c15.5,0,28.1-12.6,28.1-28.1V573.6C735,558.1,722.5,545.5,707,545.5 M650.9,807.4c-10.3,0-18.7-8.4-18.7-18.7
	c0-10.3,8.4-18.7,18.7-18.7c10.3,0,18.7,8.4,18.7,18.7C669.6,799,661.2,807.4,650.9,807.4 M707,741.9c0,5.2-4.2,9.4-9.4,9.4h-93.5
	c-5.2,0-9.4-4.2-9.4-9.4v-159c0-5.2,4.2-9.4,9.4-9.4h93.5c5.2,0,9.4,4.2,9.4,9.4V741.9z"/>
<path class="st2" d="M-214.1,86.4c0,32.8-26.1,58.9-58.9,58.9h-16.8v67.3h521.9v-50.5c0-32.8-26.1-58.9-58.9-58.9H131h-22.7H-20.5
	c-1.7,0-3.4-0.8-5.1-1.7l-96.8-75.8c-10.9,5.9-24.4,10.1-41.2,10.1c-21.9,0-38.7-6.7-50.5-16V86.4z"/>
<path class="st3" d="M-18,86.4H86.4L30,41.8L11.5,66.2c-1.7,2.5-4.2,3.4-6.7,3.4c-1.7,0-3.4-0.8-5.1-1.7c-3.4-2.5-4.2-8.4-1.7-11.8
	l18.5-24.4l-20.2-16L-22.2,41c-1.7,2.5-4.2,3.4-6.7,3.4c-1.7,0-3.4-0.8-5.1-1.7c-3.4-2.5-4.2-8.4-1.7-11.8l18.5-25.3l-23.6-18.5
	c-1.7-0.8-3.4-1.7-5.1-1.7h-33.7c-3.4,0-5.9,1.7-7.6,5.1c0,0-6.7,13.5-21,26.1L-18,86.4z"/>
<path class="st3" d="M-247.8,271.6H190c23.6,0,42.1-18.5,42.1-42.1h-521.9C-289.9,253.1-271.3,271.6-247.8,271.6"/>
<path class="st3" d="M-273,128.5c23.6,0,42.1-18.5,42.1-42.1V3.9c-5.9-7.6-9.3-13.5-9.3-14.3c-1.7-2.5-4.2-4.2-7.6-4.2h-33.7
	c-5.1,0-8.4,3.4-8.4,8.4v134.7H-273z"/>
<path class="st2" d="M165.8-420.2h-391.3c-20.7,0-37.6,16.9-37.6,37.6v270.9c0,20.7,16.9,37.6,37.6,37.6h391.3
	c20.7,0,37.6-16.9,37.6-37.6v-270.9C203.4-403.3,186.5-420.2,165.8-420.2"/>
<g class="st4">
	<g>
		<defs>
			<rect id="SVGID_1_" x="-179.5" y="-314.5" width="306.9" height="135.5"/>
		</defs>
		<clipPath id="SVGID_2_">
			<use xlink:href="#SVGID_1_"  style="overflow:visible;"/>
		</clipPath>
		<g class="st5">
			<text transform="matrix(1 0 0 1.035 -179.4919 -206.1547)"><tspan x="0" y="0" style="font-family:'MrEavesXLModOT-RegItalic'; font-size:130.8807px; letter-spacing:3;">DEBI</tspan><tspan x="235.7" y="0" style="font-family:'MrEavesXLModOT-RegItalic'; font-size:130.8807px;">T</tspan></text>
		</g>
	</g>
</g>
<path class="st3" d="M-760.3,479.6h-131.3v-41.5c0-7.6-6.2-13.8-13.8-13.8h-96.8c-7.6,0-13.8,6.2-13.8,13.8v41.5h-131.3
	c-3.8,0-6.9,3.1-6.9,6.9v20.7c0,3.8,3.1,6.9,6.9,6.9h387.1c3.8,0,6.9-3.1,6.9-6.9v-20.7C-753.4,482.7-756.5,479.6-760.3,479.6
	 M-988.4,452h69.1v27.7h-69.1V452z"/>
<path class="st2" d="M-794.9,528h-317.8c0,0.2-0.1,0.4-0.1,0.6l27.7,318c0.3,3.6,3.3,6.3,6.9,6.3h248.9c3.6,0,6.6-2.7,6.9-6.3
	l27.7-318C-794.9,528.4-794.9,528.2-794.9,528 M-1033.4,686.5c0-43.8,35.7-79.5,79.5-79.5c16.9,0,32.7,5.2,45.7,14.5l17.4-15.6
	c2.1-1.9,5.1-2.3,7.6-1.1c2.5,1.2,4.1,3.9,3.9,6.7l-2.9,43.6c-0.3,3.9-4,6.7-7.2,6.4l-43.6-1.9c-2.8-0.1-5.3-1.9-6.2-4.6
	c-0.9-2.6-0.2-5.6,1.9-7.5l18.4-16.5c-10.2-6.5-22.3-10.2-35.1-10.2c-35.6,0-65.7,30.1-65.7,65.7c0,3.8-3.1,6.9-6.9,6.9
	C-1030.3,693.4-1033.4,690.3-1033.4,686.5 M-953.9,767.9c-16.8,0-32.5-5.1-45.5-14.3l-15.5,15.2c-2,1.9-5,2.5-7.6,1.4
	c-2.6-1.1-4.2-3.7-4.2-6.5l1-43.6c0.1-3.4,3.1-6.8,6.9-6.8h43.6c2.8,0,5.3,1.7,6.4,4.3c1.1,2.6,0.4,5.6-1.6,7.6l-18.9,18.5
	c10.3,6.6,22.4,10.3,35.3,10.3c35.6,0,65.7-30.1,65.7-65.7c0-3.8,3.1-6.9,6.9-6.9c3.8,0,6.9,3.1,6.9,6.9
	C-874.4,732.3-910,767.9-953.9,767.9"/>
<path class="st2" d="M1065.2,432.2c-3.9-5.4-10.9-8.5-17.1-8.5h-52v-7.8c0-4.7-3.1-7.8-7.8-7.8c-4.7,0-7.8,3.1-7.8,7.8v46.6
	c0,4.7,3.1,7.8,7.8,7.8c4.7,0,7.8-3.1,7.8-7.8v-23.3h52c2.3,0,4.7,0.8,6.2,3.1c1.6,1.6,2.3,3.9,1.6,6.2l-39.6,250.7
	c-1.6,11.6-11.6,19.4-23.3,19.4h-149c-11.6,0-21-8.5-23.3-19.4L782,448.5c0-2.3,0-4.7,1.5-6.2c1.6-2.3,3.1-3.1,5.4-3.1h52v23.3
	c0,4.7,3.1,7.8,7.8,7.8c4.7,0,7.8-3.1,7.8-7.8v-46.6c0-4.7-3.1-7.8-7.8-7.8c-4.7,0-7.8,3.1-7.8,7.8v7.8h-52
	c-6.2,0-13.2,3.1-17.1,8.5c-3.9,5.4-7,11.6-5.4,18.6L806,701.5c3.1,18.6,19.4,32.6,38,32.6h149c19.4,0,35.7-14,38-32.6l39.6-250.7
	C1072.2,443.9,1069.9,436.9,1065.2,432.2"/>
<path class="st3" d="M1236.8,695.3c0-34.1-27.9-62.1-62.1-62.1c-34.2,0-62.1,27.9-62.1,62.1c0,31.8,24.1,57.4,54.3,61.3v0.8
	c0,64.4-52,116.4-116.4,116.4H1035c-64.4,0-116.4-52-116.4-116.4v-7.8H903v7.8c0,73,59,131.9,131.9,131.9h15.5
	c72.9,0,131.9-59,131.9-131.9v-0.8C1212.7,752.7,1236.8,727.1,1236.8,695.3"/>
<path class="st3" d="M205.5,392.8c3.3-4.9,2.3-11.5-1.6-16l0.1-0.1l0.2,0.2l-5.9-5.9l-0.6-0.6l-0.1,0.1c-4.4-3.8-10.7-4.5-15.6-1.2
	l-34.7,23.3c-3.8,2.6-4.4,8-1.1,11.3l8.9,8.9l7.2,7.2l8.9,8.9c3.3,3.3,8.8,2.7,11.4-1.2L205.5,392.8z"/>
<path class="st2" d="M-103.3,817.7l6.6-24.3l263.2-309.5c6.2-7.3,6.7-17.9,1.4-25.6l0.2-0.5c2.8-6.6,2.4-13.7-3.7-20.3l0,0
	l-28.1-28.1l-1.7-1.7l0,0c-4.5-4-12.6-5.4-19.2-2.6l-0.8,0.4c-7.4-4.4-17.1-3.8-24,2.1l-311.4,264.9l-21.8,5.9
	c-17,4.6-22.7,25.8-10.4,38.2l111.5,111.5C-129.1,840.4-108,834.7-103.3,817.7"/>
</svg>
